<svg   viewBox="0 0 40 100" xmlns="http://www.w3.org/2000/svg">
    <symbol id="arrow" stroke="currentColor" fill="none" viewBox="0 0 8 9">
        <path d="M6.27588 5.31006L3.99963 7.33339L1.72338 5.31006"  stroke-width="0.833607" stroke-miterlimit="10" stroke-linecap="round" stroke-linejoin="round"/>
        <path d="M3.99951 1.66675L3.99951 7.27675"  stroke-width="0.833607" stroke-miterlimit="10" stroke-linecap="round" stroke-linejoin="round"/>
    <symbol id="arrow-right" stroke="currentColor" fill="transparent" viewBox="0 0 16 16">
        <path d="M8.40434 1.6543L14.75 7.99995L8.40434 14.3456"  stroke-width="1.5" stroke-linecap="round" stroke-linejoin="round"/>
        <path d="M14.7499 8L1.25 8"  stroke-width="1.5" stroke-linecap="round" stroke-linejoin="round"/>
    </symbol>
    
    <symbol id="phone" stroke="currentColor" fill="none" viewBox="0 0 24 25">
        <path d="M21.97 18.83C21.97 19.19 21.89 19.56 21.72 19.92C21.55 20.28 21.33 20.62 21.04 20.94C20.55 21.48 20.01 21.87 19.4 22.12C18.8 22.37 18.15 22.5 17.45 22.5C16.43 22.5 15.34 22.26 14.19 21.77C13.04 21.28 11.89 20.62 10.75 19.79C9.6 18.95 8.51 18.02 7.47 16.99C6.44 15.95 5.51 14.86 4.68 13.72C3.86 12.58 3.2 11.44 2.72 10.31C2.24 9.17 2 8.08 2 7.04C2 6.36 2.12 5.71 2.36 5.11C2.6 4.5 2.98 3.94 3.51 3.44C4.15 2.81 4.85 2.5 5.59 2.5C5.87 2.5 6.15 2.56 6.4 2.68C6.66 2.8 6.89 2.98 7.07 3.24L9.39 6.51C9.57 6.76 9.7 6.99 9.79 7.21C9.88 7.42 9.93 7.63 9.93 7.82C9.93 8.06 9.86 8.3 9.72 8.53C9.59 8.76 9.4 9 9.16 9.24L8.4 10.03C8.29 10.14 8.24 10.27 8.24 10.43C8.24 10.51 8.25 10.58 8.27 10.66C8.3 10.74 8.33 10.8 8.35 10.86C8.53 11.19 8.84 11.62 9.28 12.14C9.73 12.66 10.21 13.19 10.73 13.72C11.27 14.25 11.79 14.74 12.32 15.19C12.84 15.63 13.27 15.93 13.61 16.11C13.66 16.13 13.72 16.16 13.79 16.19C13.87 16.22 13.95 16.23 14.04 16.23C14.21 16.23 14.34 16.17 14.45 16.06L15.21 15.31C15.46 15.06 15.7 14.87 15.93 14.75C16.16 14.61 16.39 14.54 16.64 14.54C16.83 14.54 17.03 14.58 17.25 14.67C17.47 14.76 17.7 14.89 17.95 15.06L21.26 17.41C21.52 17.59 21.7 17.8 21.81 18.05C21.91 18.3 21.97 18.55 21.97 18.83Z" stroke-width="1.5" stroke-miterlimit="10"/>
    </symbol>
    <symbol id="email" stroke="currentColor" fill="none" viewBox="0 0 24 25">
        <path d="M17 21H7C4 21 2 19.5 2 16V9C2 5.5 4 4 7 4H17C20 4 22 5.5 22 9V16C22 19.5 20 21 17 21Z"  stroke-width="1.5" stroke-miterlimit="10" stroke-linecap="round" stroke-linejoin="round"/>
        <path d="M17 9.5L13.87 12C12.84 12.82 11.15 12.82 10.12 12L7 9.5"  stroke-width="1.5" stroke-miterlimit="10" stroke-linecap="round" stroke-linejoin="round"/>
    </symbol>
    <symbol id="map" stroke="currentColor" fill="none" viewBox="0 0 24 25">
        <path d="M2.29004 8.27998V18.01C2.29004 19.91 3.64004 20.69 5.28004 19.75L7.63004 18.41C8.14004 18.12 8.99004 18.09 9.52004 18.36L14.77 20.99C15.3 21.25 16.15 21.23 16.66 20.94L20.99 18.46C21.54 18.14 22 17.36 22 16.72V6.98998C22 5.08998 20.65 4.30998 19.01 5.24998L16.66 6.58998C16.15 6.87998 15.3 6.90998 14.77 6.63998L9.52004 4.01998C8.99004 3.75998 8.14004 3.77998 7.63004 4.06998L3.30004 6.54998C2.74004 6.86998 2.29004 7.64998 2.29004 8.27998Z" stroke-width="1.5" stroke-linecap="round" stroke-linejoin="round"/>
        <path d="M8.56006 4.5V17.5"  stroke-width="1.5" stroke-linecap="round" stroke-linejoin="round"/>
        <path d="M15.73 7.11914V20.4991" stroke-width="1.5" stroke-linecap="round" stroke-linejoin="round"/>
    </symbol>
    
    <symbol id="close" stroke="currentColor" viewBox="0 0 20 20">
 <path d="M5.8335 5.83331L14.1668 14.1666M5.8335 14.1666L14.1668 5.83331" stroke-width="1.5" stroke-linecap="round" stroke-linejoin="round"/>

    </symbol>

    <symbol id="menu" fill="currentColor" viewBox="0 0 16 16">
       <path d="M2 5.16699H14" stroke="#292D32" stroke-linecap="round"/>
        <path d="M2 8.5H14" stroke="#292D32" stroke-linecap="round"/>
        <path d="M2 11.833H14" stroke="#292D32" stroke-linecap="round"/>
    </symbol>

    <symbol id='minus' stroke="currentColor" viewBox="0 0 16 16" >
       <path d="M4 8H12" stroke-width="1.5" stroke-linecap="round" stroke-linejoin="round"/>
    </symbol>



    <symbol id="maximize-circle" stroke="currentColor" fill="none" viewBox="0 0 24 24">
        <path d="M17 3H21V7" stroke-width="1.5" stroke-linecap="round" stroke-linejoin="round"/>
        <path d="M15 9L21 3" stroke-width="1.5" stroke-linecap="round" stroke-linejoin="round"/>
        <path d="M7 21H3V17" stroke-width="1.5" stroke-linecap="round" stroke-linejoin="round"/>
        <path d="M9 15L3 21" stroke-width="1.5" stroke-linecap="round" stroke-linejoin="round"/>
        <path d="M14.02 2.20001C13.37 2.07001 12.69 2 12 2C6.48 2 2 6.48 2 12C2 12.69 2.07001 13.36 2.20001 14"  stroke-width="1.5" stroke-linecap="round" stroke-linejoin="round"/>
        <path d="M9.97998 21.8C10.63 21.93 11.31 22 12 22C17.52 22 22 17.52 22 12C22 11.32 21.93 10.65 21.8 10"  stroke-width="1.5" stroke-linecap="round" stroke-linejoin="round"/>
    </symbol>
    <symbol id="global-edit" stroke="currentColor" fill="none" viewBox="0 0 24 24">
        <path d="M22 12C22 6.48 17.52 2 12 2C6.48 2 2 6.48 2 12C2 17.52 6.48 22 12 22"  stroke-width="1.5" stroke-linecap="round" stroke-linejoin="round"/>
        <path d="M7.99998 3H8.99998C7.04998 8.84 7.04998 15.16 8.99998 21H7.99998"  stroke-width="1.5" stroke-linecap="round" stroke-linejoin="round"/>
        <path d="M15 3C15.97 5.92 16.46 8.96 16.46 12"  stroke-width="1.5" stroke-linecap="round" stroke-linejoin="round"/>
        <path d="M3 16V15C5.92 15.97 8.96 16.46 12 16.46"  stroke-width="1.5" stroke-linecap="round" stroke-linejoin="round"/>
        <path d="M3 8.99961C8.84 7.04961 15.16 7.04961 21 8.99961"  stroke-width="1.5" stroke-linecap="round" stroke-linejoin="round"/>
        <path d="M19.21 15.74L15.67 19.2801C15.53 19.4201 15.4 19.68 15.37 19.87L15.18 21.22C15.11 21.71 15.45 22.05 15.94 21.98L17.29 21.79C17.48 21.76 17.75 21.63 17.88 21.49L21.42 17.95C22.03 17.34 22.32 16.63 21.42 15.73C20.53 14.84 19.82 15.13 19.21 15.74Z"  stroke-width="1.5" stroke-miterlimit="10" stroke-linecap="round" stroke-linejoin="round"/>
        <path d="M18.7001 16.25C19.0001 17.33 19.8401 18.17 20.9201 18.47"  stroke-width="1.5" stroke-miterlimit="10" stroke-linecap="round" stroke-linejoin="round"/>
    </symbol>
    <symbol id="cpu-charge" stroke="currentColor" fill="none" viewBox="0 0 24 24">
        <path d="M9.6 20H14.4C18.4 20 20 18.4 20 14.4V9.6C20 5.6 18.4 4 14.4 4H9.6C5.6 4 4 5.6 4 9.6V14.4C4 18.4 5.6 20 9.6 20Z"  stroke-width="1.5" stroke-linecap="round" stroke-linejoin="round"/>
        <path d="M10.5 17H13.5C16 17 17 16 17 13.5V10.5C17 8 16 7 13.5 7H10.5C8 7 7 8 7 10.5V13.5C7 16 8 17 10.5 17Z"  stroke-width="1.5" stroke-linecap="round" stroke-linejoin="round"/>
        <path d="M8.01001 4V2"  stroke-width="1.5" stroke-linecap="round" stroke-linejoin="round"/>
        <path d="M12 4V2"  stroke-width="1.5" stroke-linecap="round" stroke-linejoin="round"/>
        <path d="M16 4V2"  stroke-width="1.5" stroke-linecap="round" stroke-linejoin="round"/>
        <path d="M20 8H22"  stroke-width="1.5" stroke-linecap="round" stroke-linejoin="round"/>
        <path d="M20 12H22"  stroke-width="1.5" stroke-linecap="round" stroke-linejoin="round"/>
        <path d="M20 16H22"  stroke-width="1.5" stroke-linecap="round" stroke-linejoin="round"/>
        <path d="M16 20V22"  stroke-width="1.5" stroke-linecap="round" stroke-linejoin="round"/>
        <path d="M12.01 20V22"  stroke-width="1.5" stroke-linecap="round" stroke-linejoin="round"/>
        <path d="M8.01001 20V22"  stroke-width="1.5" stroke-linecap="round" stroke-linejoin="round"/>
        <path d="M2 8H4"  stroke-width="1.5" stroke-linecap="round" stroke-linejoin="round"/>
        <path d="M2 12H4"  stroke-width="1.5" stroke-linecap="round" stroke-linejoin="round"/>
        <path d="M2 16H4"  stroke-width="1.5" stroke-linecap="round" stroke-linejoin="round"/>
        <path d="M12 9.70001L11.06 11.34C10.85 11.7 11.02 12 11.44 12H12.56C12.98 12 13.15 12.3 12.94 12.66L12 14.3"  stroke-width="1.5" stroke-linecap="round" stroke-linejoin="round"/>
    </symbol>
    <symbol id="ranking" stroke="currentColor" fill="none" viewBox="0 0 24 24">
        <path d="M8.67 14H4C2.9 14 2 14.9 2 16V22H8.67V14Z"  stroke-width="1.5" stroke-miterlimit="10" stroke-linecap="round" stroke-linejoin="round"/>
        <path d="M13.33 10H10.66C9.55997 10 8.65997 10.9 8.65997 12V22H15.33V12C15.33 10.9 14.44 10 13.33 10Z"  stroke-width="1.5" stroke-miterlimit="10" stroke-linecap="round" stroke-linejoin="round"/>
        <path d="M20 17H15.33V22H22V19C22 17.9 21.1 17 20 17Z"  stroke-width="1.5" stroke-miterlimit="10" stroke-linecap="round" stroke-linejoin="round"/>
        <path d="M12.52 2.07001L13.05 3.13C13.12 3.28 13.31 3.42 13.47 3.44L14.43 3.60001C15.04 3.70001 15.19 4.14999 14.75 4.57999L14 5.32999C13.87 5.45999 13.8 5.69999 13.84 5.86999L14.05 6.79001C14.22 7.52001 13.83 7.80001 13.19 7.42001L12.29 6.89001C12.13 6.79001 11.86 6.79001 11.7 6.89001L10.8 7.42001C10.16 7.80001 9.76998 7.52001 9.93998 6.79001L10.15 5.86999C10.19 5.69999 10.12 5.44999 9.98999 5.32999L9.24999 4.59C8.80999 4.15 8.94999 3.70998 9.56999 3.60998L10.53 3.45001C10.69 3.42001 10.88 3.28001 10.95 3.14001L11.48 2.07999C11.77 1.49999 12.23 1.50001 12.52 2.07001Z"  stroke-width="1.5" stroke-linecap="round" stroke-linejoin="round"/>
    </symbol>
        <symbol id="" stroke="currentColor" fill="none" viewBox="0 0 24 24">

    </symbol>
</svg>